<svg width="24" height="24" viewBox="0 0 24 24" fill="none" xmlns="http://www.w3.org/2000/svg">
<g clip-path="url(#clip0_9_379)">
<mask id="mask0_9_379" style="mask-type:luminance" maskUnits="userSpaceOnUse" x="0" y="0" width="24" height="24">
<path d="M24 0H0V24H24V0Z" fill="white"/>
</mask>
<g mask="url(#mask0_9_379)">
<path d="M21.792 18.7039C21.429 19.5423 20.9994 20.3142 20.5017 21.0238C19.8232 21.9912 19.2676 22.6608 18.8395 23.0326C18.1758 23.643 17.4647 23.9555 16.7033 23.9733C16.1566 23.9733 15.4974 23.8178 14.73 23.5022C13.9601 23.1882 13.2526 23.0326 12.6056 23.0326C11.9271 23.0326 11.1994 23.1882 10.4211 23.5022C9.64155 23.8178 9.01355 23.9822 8.5334 23.9985C7.8032 24.0296 7.0754 23.7081 6.3489 23.0326C5.8852 22.6282 5.30525 21.9349 4.61044 20.9527C3.86498 19.9038 3.25211 18.6876 2.77198 17.3009C2.25777 15.8032 2 14.3529 2 12.9488C2 11.3404 2.34755 9.95319 3.04367 8.79069C3.59077 7.85694 4.31859 7.12039 5.22955 6.57964C6.14045 6.03894 7.12475 5.76339 8.1847 5.74574C8.76465 5.74574 9.52525 5.92514 10.4704 6.27774C11.4129 6.63149 12.0181 6.81089 12.2834 6.81089C12.4818 6.81089 13.154 6.60114 14.2937 6.18289C15.3714 5.79509 16.281 5.63449 17.0262 5.69774C19.0454 5.86069 20.5624 6.65669 21.5713 8.09069C19.7654 9.18489 18.8721 10.7174 18.8899 12.6834C18.9062 14.2148 19.4617 15.4891 20.5535 16.501C21.0483 16.9706 21.6009 17.3335 22.2157 17.5913C22.0823 17.9779 21.9416 18.3483 21.792 18.7039ZM17.161 0.480717C17.161 1.68099 16.7225 2.80168 15.8485 3.83899C14.7937 5.07214 13.5179 5.78469 12.1344 5.67224C12.1167 5.52829 12.1065 5.37674 12.1065 5.21744C12.1065 4.0652 12.6081 2.83205 13.4989 1.82379C13.9436 1.31328 14.5093 0.888806 15.1952 0.550196C15.8796 0.216635 16.527 0.0321689 17.1358 0.000579834C17.1536 0.161038 17.161 0.321522 17.161 0.480717Z" fill="black"/>
</g>
</g>
<defs>
<clipPath id="clip0_9_379">
<rect width="24" height="24" fill="white"/>
</clipPath>
</defs>
</svg>
