<svg width="61" height="61" viewBox="0 0 61 61" fill="none" xmlns="http://www.w3.org/2000/svg">
<g clip-path="url(#clip0_22_36)">
<path d="M33.1806 25.6867L2.74021 56.1152C1.62029 57.2352 1.62029 59.0461 2.74021 60.1541C3.86013 61.2621 5.67107 61.274 6.77908 60.1541L13.5701 53.3631H21.6717C27.5929 53.3631 33.3355 51.6475 38.2322 48.4783C39.5547 47.6205 38.8875 45.7381 37.3029 45.7381C36.6953 45.7381 36.2068 45.2496 36.2068 44.642C36.2068 44.1535 36.5285 43.7365 36.9812 43.5936L46.6316 40.6984C46.9295 40.6031 47.2035 40.4482 47.4299 40.2219L50.0986 37.5531C51.3019 36.3498 50.4441 34.3006 48.7523 34.3006H44.916C44.3084 34.3006 43.8199 33.8121 43.8199 33.2045C43.8199 32.716 44.1416 32.299 44.5943 32.1561L57.9381 28.1529C58.4146 28.01 58.8197 27.6883 59.0461 27.2355C60.3328 24.7336 61 21.9338 61 19.0625C61 14.1777 59.058 9.49551 55.6029 6.04043L54.9476 5.38516C51.5045 1.94199 46.8222 0 41.9375 0C37.0527 0 32.3705 1.94199 28.9154 5.39707L16.5605 17.752C10.8418 23.4707 7.62498 31.2268 7.62498 39.3164V45.9049L30.214 23.3277C30.9527 22.5891 32.1679 22.5891 32.9066 23.3277C33.55 23.9711 33.6334 24.948 33.1687 25.6867H33.1806Z" fill="black"/>
</g>
<defs>
<clipPath id="clip0_22_36">
<rect width="61" height="61" fill="white"/>
</clipPath>
</defs>
</svg>
