<svg width="24" height="24" viewBox="0 0 24 24" fill="none" xmlns="http://www.w3.org/2000/svg">
<mask id="mask0_9_441" style="mask-type:luminance" maskUnits="userSpaceOnUse" x="0" y="0" width="24" height="24">
<path d="M24 0H0V24H24V0Z" fill="white"/>
</mask>
<g mask="url(#mask0_9_441)">
<path d="M24 12C24 5.37265 18.6273 0 12 0C5.37265 0 0 5.37265 0 12C0 17.6275 3.87456 22.3497 9.1013 23.6467V15.6672H6.6269V12H9.1013V10.4199C9.1013 6.3355 10.9497 4.4424 14.9597 4.4424C15.72 4.4424 17.0319 4.59168 17.5685 4.74048V8.0645C17.2853 8.0347 16.7933 8.01985 16.1822 8.01985C14.2147 8.01985 13.4544 8.7653 13.4544 10.703V12H17.3741L16.7006 15.6672H13.4544V23.9121C19.3963 23.1945 24 18.1354 24 12Z" fill="#0866FF"/>
<path d="M16.6997 15.6672L17.3732 12H13.4535V10.703C13.4535 8.76525 14.2138 8.0198 16.1813 8.0198C16.7924 8.0198 17.2844 8.0347 17.5676 8.06445V4.74046C17.0309 4.59118 15.7191 4.44238 14.9588 4.44238C10.9488 4.44238 9.10038 6.3355 9.10038 10.4198V12H6.62598V15.6672H9.10038V23.6467C10.0287 23.8771 10.9997 24 11.9991 24C12.4911 24 12.9764 23.9697 13.453 23.9121V15.6672H16.6992H16.6997Z" fill="white"/>
</g>
</svg>
