<svg width="24" height="24" viewBox="0 0 24 24" fill="none" xmlns="http://www.w3.org/2000/svg">
<g clip-path="url(#clip0_9_413)">
<mask id="mask0_9_413" style="mask-type:luminance" maskUnits="userSpaceOnUse" x="0" y="0" width="24" height="24">
<path d="M24 0H0V24H24V0Z" fill="white"/>
</mask>
<g mask="url(#mask0_9_413)">
<path d="M12 9.81836V14.4657H18.4582C18.1746 15.9602 17.3235 17.2257 16.0472 18.0766L19.9417 21.0984C22.2108 19.004 23.52 15.9276 23.52 12.273C23.52 11.4222 23.4436 10.6039 23.3018 9.81851L12 9.81836Z" fill="#4285F4"/>
<path d="M5.2746 14.2842L4.39625 14.9566L1.28711 17.3784C3.26165 21.2947 7.3086 24.0002 11.9995 24.0002C15.2394 24.0002 17.9557 22.9311 19.9412 21.0984L16.0467 18.0766C14.9776 18.7966 13.6139 19.233 11.9995 19.233C8.8795 19.233 6.2287 17.1275 5.2795 14.2911L5.2746 14.2842Z" fill="#34A853"/>
<path d="M1.28718 6.62161C0.469042 8.23606 0 10.0579 0 11.9997C0 13.9415 0.469042 15.7633 1.28718 17.3778C1.28718 17.3887 5.27995 14.2796 5.27995 14.2796C5.04 13.5596 4.89812 12.7961 4.89812 11.9996C4.89812 11.2031 5.04 10.4395 5.27995 9.71951L1.28718 6.62161Z" fill="#FBBC05"/>
<path d="M11.9998 4.77818C13.7671 4.77818 15.338 5.38905 16.5926 6.56725L20.0289 3.13095C17.9452 1.18916 15.2398 0 11.9998 0C7.30895 0 3.26171 2.69454 1.28717 6.62185L5.27985 9.72C6.2289 6.8836 8.8798 4.77818 11.9998 4.77818Z" fill="#EA4335"/>
</g>
</g>
<defs>
<clipPath id="clip0_9_413">
<rect width="24" height="24" fill="white"/>
</clipPath>
</defs>
</svg>
